<svg xmlns="http://www.w3.org/2000/svg" viewBox="0 0 376.55 272.56"><defs><style>.a{fill:#fff;}</style></defs><path class="a" d="M346.27,98.43V60.57Q346.27,0,285.71,0V0c-49.8,0-82.06,15-98.61,45.84-14,26.06-14,58.79-14,90.45,0,61.52-.05,106-82.23,106v0q-30.28,0-30.29-30.28V174.13q0-33.3-30.29-37.85,30.3-4.54,30.29-37.85V60.57q0-30.28,30.29-30.28h66c.09-.17.16-.34.25-.5A112,112,0,0,1,180,0H90.86V0l-.59,0H85.18V.19Q30.32,3,30.28,60.57V98.43q0,22.71-30.28,22.71v30.28q30.29,0,30.28,22.71V212q0,60.56,60.58,60.57v0c49.73,0,81.93-15,98.46-45.81,14-26,14-58.76,14-90.38,0-61.58.05-106.08,82.4-106.08v0Q316,30.29,316,60.57V98.43q0,33.3,30.28,37.85Q316,140.81,316,174.13V212q0,30.28-30.28,30.28H219.6c-.1.18-.18.36-.26.54a112,112,0,0,1-22.9,29.72h89.27v0q60.56,0,60.56-60.57V174.13q0-22.71,30.28-22.71V121.14Q346.28,121.14,346.27,98.43Z"/></svg>